<svg width="37" height="34" viewBox="0 0 37 34" fill="none" xmlns="http://www.w3.org/2000/svg">
	<rect x="0.5" y="0.5" width="36" height="33" rx="9.5" stroke="#C4C4C4" />
	<path fill-rule="evenodd" clip-rule="evenodd" d="M6.65991 16.9531C6.65991 12.4551 9.03894 9.62988 12.8182 9.62988C15.6286 9.62988 18.0364 11.7635 18.2817 14.4784H17.8018C17.5467 12.0238 15.3734 10.1007 12.8182 10.1007C9.34268 10.1007 7.14969 12.7356 7.14969 16.9531C7.14969 21.2911 9.38141 24.016 12.8182 24.016C15.4326 24.016 17.5664 22.3533 17.8018 19.8785H18.2817C18.0562 22.5934 15.7652 24.4869 12.8182 24.4869C9.06856 24.4869 6.65991 21.5514 6.65991 16.9531Z" fill="#345494" />
	<path fill-rule="evenodd" clip-rule="evenodd" d="M21.4599 24.2871V9.83105H30.7125V12.3244H24.4175V16.2025H30.1643V18.5964H24.4175V24.2871H21.4599Z" fill="#345494" />
</svg>
