<?xml version="1.0" standalone="no"?>
<!DOCTYPE svg PUBLIC "-//W3C//DTD SVG 20010904//EN"
 "http://www.w3.org/TR/2001/REC-SVG-20010904/DTD/svg10.dtd">
<svg version="1.0" xmlns="http://www.w3.org/2000/svg"
 width="592.000000pt" height="592.000000pt" viewBox="0 0 592.000000 592.000000"
 preserveAspectRatio="xMidYMid meet">
<metadata>
Created by potrace 1.11, written by Peter Selinger 2001-2013
</metadata>
<g transform="translate(0.000000,592.000000) scale(0.100000,-0.100000)"
fill="#000000" stroke="none">
<path d="M1356 5664 c-345 -54 -637 -203 -886 -453 -231 -232 -367 -479 -442
-808 l-22 -98 -3 -1295 c-4 -1422 -5 -1397 56 -1607 80 -279 202 -485 411
-694 229 -230 485 -369 814 -442 l101 -22 1575 0 1575 0 101 22 c328 73 584
212 815 442 228 229 366 481 441 809 l22 97 3 1295 c4 1422 5 1397 -56 1607
-81 279 -203 486 -411 693 -230 231 -478 366 -807 442 l-98 22 -1550 2 c-1283
2 -1565 0 -1639 -12z m3222 -167 c604 -124 1046 -569 1160 -1170 16 -84 17
-196 17 -1367 0 -1171 -1 -1283 -17 -1367 -102 -539 -468 -958 -980 -1121
-220 -71 -116 -67 -1798 -67 -1421 0 -1521 1 -1609 18 -541 104 -956 467
-1120 981 -69 215 -66 143 -66 1556 0 1413 -3 1340 66 1557 173 544 647 931
1215 992 43 5 747 8 1564 7 1352 -2 1492 -4 1568 -19z"/>
<path d="M1885 4134 c-11 -2 -51 -11 -88 -20 -307 -70 -545 -300 -659 -634
-57 -169 -73 -282 -72 -520 0 -194 3 -227 27 -342 32 -152 64 -245 125 -361
121 -231 309 -387 559 -464 82 -25 100 -27 273 -27 172 0 191 2 271 27 163 50
270 110 377 211 106 99 195 267 222 415 15 82 10 93 -37 89 l-37 -3 -18 -85
c-10 -48 -36 -122 -59 -170 -34 -70 -58 -101 -133 -175 -76 -76 -107 -99 -186
-138 -229 -112 -506 -123 -739 -28 -355 145 -562 539 -561 1068 1 560 251 950
678 1055 121 30 314 30 426 0 163 -45 316 -142 417 -265 69 -85 136 -223 157
-324 l17 -83 42 0 c50 0 49 -1 28 99 -63 300 -294 546 -605 647 -76 24 -103
27 -245 30 -88 1 -169 1 -180 -2z"/>
<path d="M3430 2950 l0 -1160 240 0 240 0 0 455 0 455 460 0 460 0 0 195 0
195 -460 0 -460 0 0 305 0 305 505 0 505 0 0 205 0 205 -745 0 -745 0 0 -1160z"/>
</g>
</svg>
